<svg width="515" height="240" viewBox="0 0 515 240" fill="none" xmlns="http://www.w3.org/2000/svg">
<g clip-path="url(#clip0_22345_20170)">
<rect width="515" height="240" rx="10" fill="#436CF2" fill-opacity="0.05"/>
<path d="M121.199 16H28.4555C25.4425 16 23 18.4421 23 21.4545C23 24.467 25.4425 26.9091 28.4555 26.9091H121.199C124.212 26.9091 126.655 24.467 126.655 21.4545C126.655 18.4421 124.212 16 121.199 16Z" fill="#436CF2" fill-opacity="0.3"/>
<path d="M487.158 16H455.842C454.825 16 454 18.4624 454 21.5C454 24.5376 454.825 27 455.842 27H487.158C488.175 27 489 24.5376 489 21.5C489 18.4624 488.175 16 487.158 16Z" fill="#436CF2" fill-opacity="0.3"/>
<path d="M448.158 16H416.842C415.825 16 415 18.4624 415 21.5C415 24.5376 415.825 27 416.842 27H448.158C449.175 27 450 24.5376 450 21.5C450 18.4624 449.175 16 448.158 16Z" fill="#436CF2" fill-opacity="0.3"/>
<path d="M409.158 16H377.842C376.825 16 376 18.4624 376 21.5C376 24.5376 376.825 27 377.842 27H409.158C410.175 27 411 24.5376 411 21.5C411 18.4624 410.175 16 409.158 16Z" fill="#436CF2" fill-opacity="0.3"/>
<line x1="2" y1="42.75" x2="515" y2="42.75" stroke="#436CF2" stroke-opacity="0.15" stroke-width="0.5"/>
<rect x="23" y="152" width="141" height="136" rx="5" fill="#436CF2" fill-opacity="0.15"/>
<path d="M107 206.889V185.111C107 183.4 105.6 182 103.889 182H82.1111C80.4 182 79 183.4 79 185.111V206.889C79 208.6 80.4 210 82.1111 210H103.889C105.6 210 107 208.6 107 206.889ZM88.1778 199.08L91.4444 203.016L96.2667 196.809C96.5778 196.404 97.2 196.404 97.5111 196.824L102.971 204.104C103.058 204.22 103.111 204.357 103.124 204.501C103.136 204.645 103.109 204.79 103.045 204.919C102.98 205.048 102.881 205.157 102.758 205.233C102.635 205.309 102.493 205.349 102.349 205.349H83.6978C83.0444 205.349 82.6867 204.602 83.0911 204.089L86.9644 199.111C87.26 198.707 87.8511 198.691 88.1778 199.08Z" fill="#436CF2" fill-opacity="0.3"/>
<path d="M88.5625 198.761L88.5606 198.758C88.0326 198.13 87.0594 198.143 86.5658 198.809L82.6984 203.779C82.698 203.78 82.6976 203.78 82.6972 203.781C82.0397 204.618 82.6219 205.849 83.6978 205.849H102.349C102.586 205.849 102.819 205.783 103.021 205.658C103.223 205.533 103.386 205.355 103.492 205.143C103.598 204.93 103.643 204.693 103.622 204.456C103.6 204.22 103.513 203.994 103.371 203.804L97.9129 196.527C97.9125 196.526 97.9122 196.526 97.9118 196.525C97.4025 195.84 96.3842 195.838 95.8712 196.503C95.8709 196.503 95.8706 196.504 95.8704 196.504L91.4316 202.217L88.5625 198.761ZM106.5 185.111V206.889C106.5 208.324 105.324 209.5 103.889 209.5H82.1111C80.6761 209.5 79.5 208.324 79.5 206.889V185.111C79.5 183.676 80.6761 182.5 82.1111 182.5H103.889C105.324 182.5 106.5 183.676 106.5 185.111Z" stroke="#436CF2" stroke-opacity="0.15"/>
<rect x="187" y="152" width="141" height="136" rx="5" fill="#436CF2" fill-opacity="0.15"/>
<path d="M271 206.889V185.111C271 183.4 269.6 182 267.889 182H246.111C244.4 182 243 183.4 243 185.111V206.889C243 208.6 244.4 210 246.111 210H267.889C269.6 210 271 208.6 271 206.889ZM252.178 199.08L255.444 203.016L260.267 196.809C260.578 196.404 261.2 196.404 261.511 196.824L266.971 204.104C267.058 204.22 267.111 204.357 267.124 204.501C267.136 204.645 267.109 204.79 267.045 204.919C266.98 205.048 266.881 205.157 266.758 205.233C266.635 205.309 266.493 205.349 266.349 205.349H247.698C247.044 205.349 246.687 204.602 247.091 204.089L250.964 199.111C251.26 198.707 251.851 198.691 252.178 199.08Z" fill="#436CF2" fill-opacity="0.3"/>
<path d="M252.563 198.761L252.561 198.758C252.033 198.13 251.059 198.143 250.566 198.809L246.698 203.779C246.698 203.78 246.698 203.78 246.697 203.781C246.04 204.618 246.622 205.849 247.698 205.849H266.349C266.586 205.849 266.819 205.783 267.021 205.658C267.223 205.533 267.386 205.355 267.492 205.143C267.598 204.93 267.643 204.693 267.622 204.456C267.6 204.22 267.513 203.994 267.371 203.804L261.913 196.527C261.913 196.526 261.912 196.526 261.912 196.525C261.403 195.84 260.384 195.838 259.871 196.503C259.871 196.503 259.871 196.504 259.87 196.504L255.432 202.217L252.563 198.761ZM270.5 185.111V206.889C270.5 208.324 269.324 209.5 267.889 209.5H246.111C244.676 209.5 243.5 208.324 243.5 206.889V185.111C243.5 183.676 244.676 182.5 246.111 182.5H267.889C269.324 182.5 270.5 183.676 270.5 185.111Z" stroke="#436CF2" stroke-opacity="0.15"/>
<rect x="351" y="152" width="141" height="136" rx="5" fill="#436CF2" fill-opacity="0.15"/>
<path d="M435 206.889V185.111C435 183.4 433.6 182 431.889 182H410.111C408.4 182 407 183.4 407 185.111V206.889C407 208.6 408.4 210 410.111 210H431.889C433.6 210 435 208.6 435 206.889ZM416.178 199.08L419.444 203.016L424.267 196.809C424.578 196.404 425.2 196.404 425.511 196.824L430.971 204.104C431.058 204.22 431.111 204.357 431.124 204.501C431.136 204.645 431.109 204.79 431.045 204.919C430.98 205.048 430.881 205.157 430.758 205.233C430.635 205.309 430.493 205.349 430.349 205.349H411.698C411.044 205.349 410.687 204.602 411.091 204.089L414.964 199.111C415.26 198.707 415.851 198.691 416.178 199.08Z" fill="#436CF2" fill-opacity="0.3"/>
<path d="M416.563 198.761L416.561 198.758C416.033 198.13 415.059 198.143 414.566 198.809L410.698 203.779C410.698 203.78 410.698 203.78 410.697 203.781C410.04 204.618 410.622 205.849 411.698 205.849H430.349C430.586 205.849 430.819 205.783 431.021 205.658C431.223 205.533 431.386 205.355 431.492 205.143C431.598 204.93 431.643 204.693 431.622 204.456C431.6 204.22 431.513 203.994 431.371 203.804L425.913 196.527C425.913 196.526 425.912 196.526 425.912 196.525C425.403 195.84 424.384 195.838 423.871 196.503C423.871 196.503 423.871 196.504 423.87 196.504L419.432 202.217L416.563 198.761ZM434.5 185.111V206.889C434.5 208.324 433.324 209.5 431.889 209.5H410.111C408.676 209.5 407.5 208.324 407.5 206.889V185.111C407.5 183.676 408.676 182.5 410.111 182.5H431.889C433.324 182.5 434.5 183.676 434.5 185.111Z" stroke="#436CF2" stroke-opacity="0.15"/>
<rect x="188" y="75" width="138" height="23" rx="11.5" fill="#436CF2" fill-opacity="0.3"/>
<rect x="151" y="110" width="212" height="10" rx="5" fill="#436CF2" fill-opacity="0.15"/>
</g>
<defs>
<clipPath id="clip0_22345_20170">
<rect width="515" height="240" rx="10" fill="white"/>
</clipPath>
</defs>
</svg>
