<svg width="515" height="240" viewBox="0 0 515 240" fill="none" xmlns="http://www.w3.org/2000/svg">
<g clip-path="url(#clip0_22345_19664)">
<rect width="515" height="240" rx="10" fill="#436CF2" fill-opacity="0.05"/>
<path d="M123.699 16.0469H30.9555C27.9425 16.0469 25.5 18.489 25.5 21.5014C25.5 24.5139 27.9425 26.956 30.9555 26.956H123.699C126.712 26.956 129.155 24.5139 129.155 21.5014C129.155 18.489 126.712 16.0469 123.699 16.0469Z" fill="#436CF2" fill-opacity="0.3"/>
<path d="M411.658 16H380.342C379.325 16 378.5 18.4624 378.5 21.5C378.5 24.5376 379.325 27 380.342 27H411.658C412.675 27 413.5 24.5376 413.5 21.5C413.5 18.4624 412.675 16 411.658 16Z" fill="#436CF2" fill-opacity="0.3"/>
<path d="M450.658 16H419.342C418.325 16 417.5 18.4624 417.5 21.5C417.5 24.5376 418.325 27 419.342 27H450.658C451.675 27 452.5 24.5376 452.5 21.5C452.5 18.4624 451.675 16 450.658 16Z" fill="#436CF2" fill-opacity="0.3"/>
<path d="M489.658 16H458.342C457.325 16 456.5 18.4624 456.5 21.5C456.5 24.5376 457.325 27 458.342 27H489.658C490.675 27 491.5 24.5376 491.5 21.5C491.5 18.4624 490.675 16 489.658 16Z" fill="#436CF2" fill-opacity="0.3"/>
<line x1="2" y1="42.75" x2="515" y2="42.75" stroke="#436CF2" stroke-opacity="0.3" stroke-width="0.5"/>
<rect x="188" y="75" width="138" height="23" rx="11.5" fill="#436CF2" fill-opacity="0.3"/>
<rect x="18" y="157" width="277" height="118" rx="10" fill="#436CF2" fill-opacity="0.15"/>
<rect x="314" y="157" width="175" height="118" rx="10" fill="#436CF2" fill-opacity="0.3"/>
<rect x="151" y="110" width="212" height="10" rx="5" fill="#436CF2" fill-opacity="0.15"/>
</g>
<defs>
<clipPath id="clip0_22345_19664">
<rect width="515" height="240" rx="10" fill="white"/>
</clipPath>
</defs>
</svg>
