<svg width="515" height="240" viewBox="0 0 515 240" fill="none" xmlns="http://www.w3.org/2000/svg">
<g clip-path="url(#clip0_22345_20277)">
<rect width="515" height="240" rx="10" fill="#436CF2" fill-opacity="0.05"/>
<rect y="-33" width="141" height="318" rx="10" fill="#436CF2" fill-opacity="0.15"/>
<rect y="-33" width="22" height="318" rx="10" fill="#436CF2" fill-opacity="0.47"/>
<rect x="35" y="22" width="85" height="10" rx="5" fill="#436CF2" fill-opacity="0.3"/>
<rect x="158" y="22" width="79" height="10" rx="5" fill="#436CF2" fill-opacity="0.3"/>
<rect x="158" y="55" width="118" height="10" rx="5" fill="#436CF2" fill-opacity="0.3"/>
<rect x="284" y="55" width="196" height="10" rx="5" fill="#436CF2" fill-opacity="0.15"/>
<rect x="158" y="88" width="63" height="10" rx="5" fill="#436CF2" fill-opacity="0.3"/>
<rect x="229" y="88" width="63" height="10" rx="5" fill="#436CF2" fill-opacity="0.15"/>
<rect x="300" y="88" width="177" height="10" rx="5" fill="#436CF2" fill-opacity="0.3"/>
<rect x="158" y="121" width="118" height="10" rx="5" fill="#436CF2" fill-opacity="0.3"/>
<rect x="284" y="121" width="196" height="10" rx="5" fill="#436CF2" fill-opacity="0.15"/>
</g>
<defs>
<clipPath id="clip0_22345_20277">
<rect width="515" height="240" rx="10" fill="white"/>
</clipPath>
</defs>
</svg>
